<?xml version="1.0" standalone="no"?>
<!DOCTYPE svg PUBLIC "-//W3C//DTD SVG 20010904//EN"
 "http://www.w3.org/TR/2001/REC-SVG-20010904/DTD/svg10.dtd">
<svg version="1.0" xmlns="http://www.w3.org/2000/svg"
 width="500.000000pt" height="500.000000pt" viewBox="0 0 500.000000 500.000000"
 preserveAspectRatio="xMidYMid meet">
<metadata>
Created by potrace 1.11, written by Peter Selinger 2001-2013
</metadata>
<g transform="translate(0.000000,500.000000) scale(0.100000,-0.100000)"
fill="#000000" stroke="none">
<path d="M1980 2595 l0 -285 40 0 40 0 0 285 0 285 -40 0 -40 0 0 -285z"/>
<path d="M2292 2860 c-44 -27 -66 -80 -57 -139 5 -42 15 -54 94 -131 96 -93
111 -114 111 -159 0 -37 -23 -61 -58 -61 -40 0 -52 12 -70 67 -17 49 -17 49
-50 41 -31 -8 -33 -11 -27 -41 18 -84 68 -129 144 -129 86 0 133 47 133 131 0
67 -28 113 -122 199 -43 39 -80 82 -84 96 -9 36 9 74 39 82 42 10 72 -10 86
-56 11 -35 16 -40 33 -36 12 3 25 6 30 6 21 0 -3 84 -33 113 -40 41 -119 49
-169 17z"/>
<path d="M2760 2876 c0 -4 -107 -519 -114 -548 -3 -15 3 -18 34 -18 l38 0 12
70 12 70 58 0 58 0 12 -70 12 -70 38 0 c31 0 37 3 34 18 -8 33 -114 542 -114
547 0 3 -18 5 -40 5 -22 0 -40 -2 -40 -4z m66 -251 l20 -115 -43 0 c-28 0 -43
4 -43 13 0 27 35 217 40 217 3 0 15 -52 26 -115z"/>
<path d="M1660 2000 c0 -47 3 -60 15 -60 9 0 15 10 15 26 0 21 4 25 23 22 14
-2 23 -11 25 -25 2 -13 10 -23 18 -23 11 0 14 15 14 60 0 47 -3 60 -15 60 -9
0 -15 -9 -15 -25 0 -20 -5 -25 -25 -25 -20 0 -25 5 -25 25 0 16 -6 25 -15 25
-12 0 -15 -13 -15 -60z"/>
<path d="M1867 2042 c-22 -24 -21 -65 1 -85 40 -36 102 -9 102 45 0 51 -69 78
-103 40z m68 -42 c0 -18 -6 -26 -23 -28 -24 -4 -38 18 -28 44 3 9 15 14 28 12
17 -2 23 -10 23 -28z"/>
<path d="M2040 2051 c0 -5 9 -11 20 -14 16 -4 20 -14 20 -51 0 -34 4 -46 15
-46 11 0 15 12 15 50 0 38 4 50 15 50 8 0 15 5 15 10 0 6 -22 10 -50 10 -27 0
-50 -4 -50 -9z"/>
<path d="M2244 2052 c-51 -34 -28 -111 34 -112 27 0 62 33 62 60 0 42 -62 75
-96 52z m60 -37 c8 -23 -4 -45 -25 -45 -11 0 -22 7 -25 15 -9 23 3 45 25 45
10 0 21 -7 25 -15z"/>
<path d="M2444 2052 c-25 -16 -34 -50 -22 -77 21 -46 98 -46 98 1 0 13 -4 24
-10 24 -5 0 -10 -7 -10 -16 0 -10 -7 -14 -22 -12 -17 2 -23 10 -23 28 0 20 5
25 27 25 34 1 47 13 28 25 -18 12 -51 13 -66 2z"/>
<path d="M2818 2017 c-31 -76 -31 -77 -14 -77 9 0 16 5 16 10 0 6 14 10 30 10
17 0 30 -4 30 -10 0 -5 7 -10 15 -10 20 0 19 8 -6 69 -27 64 -48 66 -71 8z
m38 -34 c-11 -11 -19 6 -11 24 8 17 8 17 12 0 3 -10 2 -21 -1 -24z"/>
<path d="M3170 2000 c0 -47 3 -60 15 -60 9 0 15 9 15 25 0 20 5 25 25 25 20 0
25 -5 25 -25 0 -16 6 -25 15 -25 12 0 15 13 15 60 0 47 -3 60 -15 60 -9 0 -15
-9 -15 -25 0 -20 -5 -25 -25 -25 -20 0 -25 5 -25 25 0 16 -6 25 -15 25 -12 0
-15 -13 -15 -60z"/>
<path d="M3360 2053 c0 -5 9 -23 20 -41 11 -18 20 -41 20 -52 0 -11 7 -20 15
-20 8 0 15 9 15 20 0 12 9 39 20 60 17 33 18 40 6 40 -9 0 -21 -11 -29 -26
l-13 -25 -14 25 c-12 24 -40 36 -40 19z"/>
<path d="M1480 1995 c0 -42 3 -55 15 -55 8 0 15 6 15 14 0 7 13 16 29 19 33 7
45 30 31 58 -8 14 -21 19 -50 19 l-40 0 0 -55z m65 15 c0 -8 -8 -16 -17 -18
-13 -2 -18 3 -18 18 0 15 5 20 18 18 9 -2 17 -10 17 -18z"/>
<path d="M2610 1996 c0 -43 3 -56 15 -56 8 0 15 7 15 15 0 8 6 15 14 15 8 0
16 -7 20 -15 3 -8 12 -15 21 -15 17 0 20 16 5 25 -8 5 -7 11 0 20 6 8 10 24 8
37 -3 20 -10 23 -50 26 l-48 3 0 -55z m68 17 c-5 -26 -38 -29 -38 -4 0 15 6
21 21 21 14 0 19 -5 17 -17z"/>
<path d="M2990 1996 c0 -43 3 -56 15 -56 8 0 15 6 15 14 0 8 12 16 26 18 15 2
32 11 38 21 18 28 -4 52 -53 55 l-41 3 0 -55z m65 14 c0 -8 -8 -16 -17 -18
-13 -2 -18 3 -18 18 0 15 5 20 18 18 9 -2 17 -10 17 -18z"/>
</g>
</svg>
